# xmcd
#
# Track frame offsets:
#	150
#	28614
#	47870
#	68036
#	100952
#	124072
#	146928
#	221816
#
# Disc length: 3441 seconds
#
# Revision: 0
# Processed by: cddbd v1.4PL0 Copyright (c) Steve Scherf et al.
# Submitted via: dBpowerAMP V4.0
#
DISCID=7c0d6f08
DTITLE=K-Floor - Live At The Grape St. Pub Manyunk, PA
DYEAR=1999
DGENRE=Blues
TTITLE0=Somanydynamos
TTITLE1=Don't Want No Woman
TTITLE2=Poison
TTITLE3=Rock Me Baby
TTITLE4=Brick
TTITLE5=Spanky Jam
TTITLE6=Pink Diddley
TTITLE7=Killing Floor
EXTD=
EXTT0=
EXTT1=
EXTT2=
EXTT3=
EXTT4=
EXTT5=
EXTT6=
EXTT7=
PLAYORDER=
